<?xml version="1.0" standalone="no"?>
<!DOCTYPE svg PUBLIC "-//W3C//DTD SVG 20010904//EN"
 "http://www.w3.org/TR/2001/REC-SVG-20010904/DTD/svg10.dtd">
<svg version="1.0" xmlns="http://www.w3.org/2000/svg"
 width="236.000000pt" height="236.000000pt" viewBox="0 0 236.000000 236.000000"
 preserveAspectRatio="xMidYMid meet">
<metadata>
Created by potrace 1.14, written by Peter Selinger 2001-2017
</metadata>
<g transform="translate(0.000000,236.000000) scale(0.100000,-0.100000)"
fill="#000000" stroke="none">
<path d="M244 1845 c1 -88 -3 -146 -9 -148 -5 -2 -58 -3 -118 -2 -66 0 -108
-3 -109 -10 0 -5 -2 -40 -3 -76 l-1 -66 114 -1 c62 0 116 -3 119 -6 4 -4 7
-208 8 -454 1 -407 3 -452 20 -504 37 -114 135 -203 249 -228 76 -16 211 -11
279 12 60 19 127 57 127 71 0 4 -13 34 -29 66 l-30 58 -62 -31 c-54 -26 -72
-30 -139 -29 -119 1 -195 51 -221 146 -18 64 -19 888 -1 895 7 2 99 5 205 6
l192 1 0 73 c0 39 -2 73 -5 73 -3 1 -95 2 -205 3 l-200 1 2 148 1 147 -92 0
-92 0 0 -145z"/>
<path d="M990 1690 c-8 -5 17 -67 83 -211 9 -19 61 -135 115 -259 55 -124 109
-247 122 -275 12 -27 32 -72 44 -100 12 -27 67 -150 121 -273 l99 -223 95 3
94 3 107 240 c59 132 192 429 295 660 103 231 189 425 191 430 3 7 -27 10 -83
10 -86 0 -87 -1 -104 -30 -9 -17 -124 -272 -255 -567 -131 -296 -242 -538
-246 -538 -5 0 -8 4 -8 9 0 5 -13 38 -29 73 -16 35 -70 155 -119 268 -49 113
-102 232 -117 265 -32 73 -33 74 -136 310 -45 105 -86 194 -91 199 -8 10 -163
15 -178 6z"/>
</g>
</svg>
